<?xml version="1.0" encoding="UTF-8"?>
<!--Generator: Apple Native CoreSVG 341-->
<!DOCTYPE svg
PUBLIC "-//W3C//DTD SVG 1.1//EN"
       "http://www.w3.org/Graphics/SVG/1.1/DTD/svg11.dtd">
<svg version="1.1" xmlns="http://www.w3.org/2000/svg" xmlns:xlink="http://www.w3.org/1999/xlink" viewBox="0 0 351.855 281.543">
 <g>
  <rect height="281.543" opacity="0" width="351.855" x="0" y="0"/>
  <path d="M275.098 55.3711L275.098 64.4531L257.812 64.4531L257.812 55.4688C257.812 31.1523 244.824 17.6758 219.922 17.6758L55.1758 17.6758C29.9805 17.6758 17.2852 31.1523 17.2852 55.4688L17.2852 154.883C17.2852 179.199 29.9805 192.676 55.1758 192.676L70.4102 192.676C76.2695 192.676 78.5156 194.922 78.5156 200.879L78.5156 237.598L119.629 198.145C123.157 194.456 125.961 193.138 130.26 192.786C130.639 199.186 131.777 204.93 133.664 209.985L89.6484 248.828C83.3008 254.395 79.5898 257.227 74.2188 257.227C66.6992 257.227 62.4023 251.953 62.4023 243.555L62.4023 209.961L55.0781 209.961C19.6289 209.961 0 189.941 0 154.98L0 55.3711C0 20.4102 19.6289 0.292969 55.0781 0.292969L220.02 0.292969C255.371 0.292969 275.098 20.5078 275.098 55.3711Z" fill="white" fill-opacity="0.85"/>
  <path d="M195.508 137.305L287.109 137.305C291.699 137.305 295.215 133.789 295.215 129.297C295.215 124.609 291.699 121.191 287.109 121.191L195.508 121.191C190.723 121.191 187.402 124.609 187.402 129.297C187.402 133.789 190.723 137.305 195.508 137.305ZM195.508 182.617L262.793 182.617C267.285 182.617 270.898 179.297 270.898 174.609C270.898 170.117 267.285 166.504 262.793 166.504L195.508 166.504C190.723 166.504 187.402 170.117 187.402 174.609C187.402 179.297 190.723 182.617 195.508 182.617ZM180.859 237.988L228.906 237.988L270.02 273.242C276.367 278.711 279.98 281.543 285.156 281.543C292.48 281.543 296.777 276.27 296.777 268.164L296.777 237.988L301.074 237.988C334.277 237.988 351.855 220.117 351.855 187.305L351.855 115.234C351.855 82.4219 334.277 64.4531 301.074 64.4531L180.859 64.4531C147.656 64.4531 130.078 82.4219 130.078 115.234L130.078 187.5C130.078 220.215 147.656 237.988 180.859 237.988ZM181.348 220.703C157.812 220.703 147.461 209.668 147.461 186.914L147.461 115.723C147.461 93.0664 157.812 81.7383 181.348 81.7383L300.586 81.7383C324.121 81.7383 334.473 93.0664 334.473 115.723L334.473 186.816C334.473 209.473 324.023 220.703 300.586 220.703L288.867 220.703C284.18 220.703 280.469 223.438 280.469 229.492L280.469 261.816L239.746 225.391C235.84 221.875 232.812 220.703 228.125 220.703Z" fill="white" fill-opacity="0.85"/>
 </g>
</svg>
